<?xml version="1.0" encoding="utf-8"?>
<!-- Generator: Adobe Illustrator 26.0.1, SVG Export Plug-In . SVG Version: 6.00 Build 0)  -->
<svg version="1.1"
	 id="Layer_1" xmlns:cc="http://creativecommons.org/ns#" xmlns:dc="http://purl.org/dc/elements/1.1/" xmlns:inkscape="http://www.inkscape.org/namespaces/inkscape" xmlns:rdf="http://www.w3.org/1999/02/22-rdf-syntax-ns#" xmlns:sodipodi="http://sodipodi.sourceforge.net/DTD/sodipodi-0.dtd" xmlns:svg="http://www.w3.org/2000/svg"
	 xmlns="http://www.w3.org/2000/svg" xmlns:xlink="http://www.w3.org/1999/xlink" x="0px" y="0px" viewBox="0 0 300 300"
	 style="enable-background:new 0 0 300 300;" xml:space="preserve">
<style type="text/css">
	.st0{fill-rule:evenodd;clip-rule:evenodd;fill:#FFFFFF;}
</style>
<g transform="translate(0,-952.36216)">
	<path class="st0" d="M206.2,1007.8c-10,0-18.1,8.1-18.1,18.1c0,10,8.1,18.1,18.1,18.1c10,0,18.1-8,18.1-18.1
		C224.4,1015.9,216.2,1007.8,206.2,1007.8z M122.1,1035.4c-10,0-18.1,8.1-18.1,18.1c0,10,8.1,18.1,18.1,18.1c10,0,18.1-8,18.1-18.1
		C140.2,1043.5,132.1,1035.4,122.1,1035.4z M224.3,1043.8c-7.6,0.1-11.5,3.3-17.1,9.2c-5.6,5.9-12.9,10.1-17.8,11.6
		c-6.1,1.9-13.4,1.2-27.9-3.4c-9.1-3-13.4,10.7-4.3,13.5c15.5,4.9,26.3,6.5,36.3,3.4c3.3-1,6.3-2.4,9.2-4.2
		c-0.5,2.1-0.9,3.9-1.5,5.3c-1.2,3.4-2.5,5-4.2,6.2c-3.4,2.5-11.7,3.8-28.1,3.4c-9.5-0.3-9.8,14-0.4,14.2c17,0.4,28.1,0.2,36.8-6
		c4.3-3.1,7.2-7.6,9.1-12.7c2.8,3.2,5.7,7.9,7.6,12.8c2.6,6.6,3.1,13.9,2.8,15.7c0,0.1,0,0.2,0,0.4h0
		c-13.3,10.5-21.6,19.1-27.4,29.2c-6.5,11.3-9.7,23.2-15.5,41c-4.6,13.1,15.3,19.5,19.3,6.2c5.9-18.1,9-28.8,13.7-37.1
		c4.6-7.9,11-14.7,24.9-25.4c2.4-1.9,4.8-3.8,3.8,1.3c-2,10.7-3.4,17.7-2.2,25.6c0.9,6.1,3.8,11.6,7.8,17.3
		c4.1,5.6,9.6,12.1,17.5,21.7c8.6,10.4,24.2-2.5,15.6-12.9c-8-9.7-13.5-16.2-16.7-20.6c-3.2-4.4-3.9-6.2-4.2-8.3
		c2.1-26.6,9.9-42.6,0-69.2c-4.7-12.2-12-24.3-23.6-33.5C234.1,1045.4,229.3,1043.7,224.3,1043.8L224.3,1043.8z M89,1057.4
		c-2.6,0-5.2,0.4-7.6,1.3c-21.1,10.6-43.7,30.3-47.2,53c-1.7,13.2,5.7,28.1,3.2,41c-1.1,4.7-5.6,10.3-19.7,27.3
		c-9,10.4,7,23.7,15.6,12.9c13.9-16.8,21.3-24.2,23.9-35.8c1.9-8.4,0.8-16.4-0.8-28.6c-0.3-2.9,0.7-3.3,2.6-1.9
		c14.4,10.9,21,17.9,25.6,25.9c4.8,8.3,7.9,18.9,13.7,37.1c4.1,13,23.6,6.7,19.3-6.2c-5.8-17.8-9-29.7-15.5-41
		c-5.4-9.4-13-17.6-24.8-27.1h0l0,0c3.6-7.8,7.3-12.3,16-15.9c1.7,7.4,4.3,13.1,9.2,17.6c8.6,7.7,20.5,8,38.8,7.5
		c9.6-0.1,9.2-14.6-0.4-14.2c-17.7,0.5-25.6-0.9-28.9-3.8c-2.2-1.9-3.9-6.1-5.4-13.6c1.3,1.4,2.8,2.8,4.4,4c7.5,5.7,17,7.1,32.8,7.2
		c9.6,0.2,9.7-14.3,0.1-14.2c-14.9-0.1-20.4-1.3-24.2-4.3c-2.9-2.2-7.4-7.1-11.1-14.4C104.7,1063.9,99,1057.6,89,1057.4L89,1057.4z"
		/>
</g>
</svg>
